# xmcd
#
# Track frame offsets:
#	150
#	16212
#	30492
#	42891
#	59116
#	76952
#
# Disc length: 1180 seconds
#
# Revision: 0
# Processed by: cddbd v1.5.2PL0 Copyright (c) Steve Scherf et al.
# Submitted via: EasyCDDAExtractor 16.0.6.1
#
DISCID=42049a06
DTITLE=Taylor Swift - The Taylor Swift Holiday Collection
DYEAR=2009
DGENRE=Country
TTITLE0=Last Christmas
TTITLE1=Christmases When You Were Mine
TTITLE2=Santa Baby
TTITLE3=Silent Night
TTITLE4=Christmas Must Be Something More
TTITLE5=White Christmas
EXTD=
EXTT0=
EXTT1=
EXTT2=
EXTT3=
EXTT4=
EXTT5=
PLAYORDER=
